<svg width="24" height="24" viewBox="0 0 24 24" fill="none" xmlns="http://www.w3.org/2000/svg">
<path d="M8.04301 2.793C7.85553 2.98053 7.75022 3.23484 7.75022 3.5C7.75022 3.76516 7.85553 4.01947 8.04301 4.207L15.836 12L8.04301 19.793C7.94749 19.8852 7.87131 19.9956 7.8189 20.1176C7.76649 20.2396 7.73891 20.3708 7.73775 20.5036C7.7366 20.6364 7.7619 20.7681 7.81218 20.891C7.86246 21.0138 7.93672 21.1255 8.03061 21.2194C8.1245 21.3133 8.23615 21.3875 8.35905 21.4378C8.48195 21.4881 8.61363 21.5134 8.74641 21.5123C8.87919 21.5111 9.01041 21.4835 9.13241 21.4311C9.25441 21.3787 9.36476 21.3025 9.457 21.207L18.664 12L9.457 2.793C9.26948 2.60553 9.01517 2.50021 8.75 2.50021C8.48484 2.50021 8.23053 2.60553 8.04301 2.793Z" fill="white"/>
</svg>
