<svg width="24" height="24" viewBox="0 0 24 24" fill="none" xmlns="http://www.w3.org/2000/svg">
<path d="M7.05 3.606L20.54 11.394C20.6463 11.4555 20.7346 11.5438 20.7959 11.6502C20.8573 11.7566 20.8896 11.8772 20.8896 12C20.8896 12.1228 20.8573 12.2434 20.7959 12.3498C20.7346 12.4562 20.6463 12.5445 20.54 12.606L7.05 20.394C6.9436 20.4554 6.82291 20.4878 6.70005 20.4878C6.5772 20.4878 6.4565 20.4555 6.35009 20.3941C6.24369 20.3326 6.15532 20.2443 6.09386 20.1379C6.03241 20.0315 6.00004 19.9109 6 19.788V4.212C6.00004 4.08914 6.03241 3.96846 6.09386 3.86207C6.15532 3.75569 6.24369 3.66735 6.35009 3.60594C6.4565 3.54453 6.5772 3.51221 6.70005 3.51221C6.82291 3.51222 6.9436 3.54457 7.05 3.606Z" fill="white"/>
</svg>
