<svg width="15" height="16" viewBox="0 0 15 16" fill="none" xmlns="http://www.w3.org/2000/svg">
<g clip-path="url(#clip0_1_12)">
<path d="M1.58437 2C2.38539 1.19461 3.4457 0.747963 4.54648 0.752243C5.64727 0.756523 6.7045 1.2114 7.49999 2.023C7.97857 1.53721 8.55573 1.17569 9.1866 0.966524C9.81747 0.757361 10.4851 0.706194 11.1375 0.817H11.1394C12.0082 0.968697 12.813 1.39933 13.4465 2.05146C14.08 2.70359 14.512 3.54623 14.685 4.467V4.47C14.8099 5.14484 14.7894 5.84112 14.6252 6.50631C14.4611 7.1715 14.1574 7.78824 13.7372 8.31L8.76562 14.629C8.53164 14.9253 8.21275 15.1313 7.85814 15.2152C7.50353 15.299 7.1329 15.2561 6.80343 15.093C6.58498 14.9846 6.39139 14.8266 6.23624 14.63L1.26374 8.309C0.547748 7.41458 0.181605 6.26074 0.241114 5.08633C0.300623 3.91192 0.781228 2.80689 1.58343 2H1.58437ZM4.54499 2.252C3.99145 2.249 3.44875 2.41567 2.98145 2.73219C2.51415 3.0487 2.14193 3.50174 1.90906 4.0374C1.67618 4.57307 1.59247 5.16881 1.66787 5.75376C1.74327 6.33871 1.97461 6.88825 2.33437 7.337L2.33906 7.342L7.31249 13.664C7.34742 13.7078 7.39479 13.7382 7.44742 13.7507C7.50005 13.7631 7.55504 13.7569 7.60406 13.733C7.63657 13.7168 7.66537 13.6933 7.68843 13.664L12.6684 7.334C12.9505 6.98465 13.1544 6.57151 13.2649 6.12578C13.3753 5.68005 13.3893 5.21337 13.3059 4.761C13.189 4.13992 12.8976 3.57156 12.4704 3.13156C12.0431 2.69156 11.5004 2.4008 10.9144 2.298C10.4749 2.22346 10.0251 2.25832 9.60034 2.39988C9.17555 2.54143 8.78719 2.78584 8.46562 3.114L8.45906 3.121C8.19866 3.37946 7.85616 3.52314 7.50046 3.52314C7.14477 3.52314 6.80227 3.37946 6.54187 3.121L6.53343 3.113C5.99882 2.56435 5.28685 2.25607 4.54499 2.252Z" fill="white"/>
</g>
<defs>
<clipPath id="clip0_1_12">
<rect width="15" height="16" fill="white"/>
</clipPath>
</defs>
</svg>
