<svg width="15" height="16" viewBox="0 0 15 16" fill="none" xmlns="http://www.w3.org/2000/svg">
<g clip-path="url(#clip0_1_7)">
<path d="M12.3291 0.921997C12.2647 0.84831 12.1871 0.789208 12.1008 0.748216C12.0146 0.707224 11.9215 0.685182 11.8271 0.683405C11.7326 0.681629 11.6389 0.700153 11.5513 0.737874C11.4638 0.775595 11.3842 0.83174 11.3175 0.902958C11.2507 0.974177 11.1981 1.05901 11.1627 1.1524C11.1273 1.24579 11.11 1.34582 11.1116 1.44652C11.1133 1.54722 11.134 1.64654 11.1724 1.73854C11.2108 1.83053 11.2662 1.91333 11.3353 1.982L12.2897 3H10.4625C9.94905 3 9.44183 3.11998 8.97651 3.35148C8.51118 3.58298 8.09904 3.92039 7.76906 4.34L1.98188 11.696C1.78387 11.9478 1.53655 12.1502 1.25732 12.2892C0.978094 12.4281 0.673727 12.5 0.365625 12.5H0V14H0.366563C0.880013 14 1.38723 13.88 1.85256 13.6485C2.31788 13.417 2.73002 13.0796 3.06 12.66L8.84719 5.304C9.04519 5.05221 9.29251 4.84975 9.57174 4.71084C9.85097 4.57194 10.1553 4.49997 10.4634 4.5H12.2887L11.3353 5.518C11.2111 5.66017 11.1435 5.84822 11.1467 6.04252C11.1499 6.23682 11.2237 6.42221 11.3525 6.55962C11.4814 6.69703 11.6552 6.77574 11.8373 6.77917C12.0195 6.7826 12.1958 6.71048 12.3291 6.578L14.9812 3.75L12.3281 0.921997H12.3291ZM0.366563 3.5H0V2H0.366563C1.40625 2 2.39156 2.49 3.06 3.34L4.58437 5.277L3.66656 6.444L1.98281 4.304C1.7847 4.05208 1.53724 3.84954 1.25784 3.71063C0.978435 3.57172 0.673885 3.49983 0.365625 3.5H0.366563Z" fill="white"/>
<path d="M7.03125 10.723L7.95 9.556L8.84719 10.696C9.04519 10.9478 9.29251 11.1502 9.57174 11.2892C9.85097 11.4281 10.1553 11.5 10.4634 11.5H12.2887L11.3353 10.482C11.2662 10.4133 11.2108 10.3305 11.1724 10.2385C11.134 10.1465 11.1133 10.0472 11.1116 9.94652C11.11 9.84582 11.1273 9.74579 11.1627 9.6524C11.1981 9.55901 11.2507 9.47418 11.3175 9.40296C11.3842 9.33174 11.4638 9.27559 11.5513 9.23787C11.6389 9.20015 11.7326 9.18163 11.8271 9.18341C11.9215 9.18518 12.0146 9.20722 12.1008 9.24822C12.1871 9.28921 12.2647 9.34831 12.3291 9.422L14.9812 12.25L12.3291 15.078C12.2647 15.1517 12.1871 15.2108 12.1008 15.2518C12.0146 15.2928 11.9215 15.3148 11.8271 15.3166C11.7326 15.3184 11.6389 15.2998 11.5513 15.2621C11.4638 15.2244 11.3842 15.1683 11.3175 15.097C11.2507 15.0258 11.1981 14.941 11.1627 14.8476C11.1273 14.7542 11.11 14.6542 11.1116 14.5535C11.1133 14.4528 11.134 14.3535 11.1724 14.2615C11.2108 14.1695 11.2662 14.0867 11.3353 14.018L12.2897 13H10.4625C9.94905 13 9.44183 12.88 8.97651 12.6485C8.51118 12.417 8.09904 12.0796 7.76906 11.66L7.03125 10.722V10.723Z" fill="white"/>
</g>
<defs>
<clipPath id="clip0_1_7">
<rect width="15" height="16" fill="white"/>
</clipPath>
</defs>
</svg>
