<svg width="24" height="24" viewBox="0 0 24 24" fill="none" xmlns="http://www.w3.org/2000/svg">
<path d="M6 3H21V18.167C21 18.8592 20.7947 19.5359 20.4101 20.1115C20.0256 20.6871 19.4789 21.1357 18.8394 21.4006C18.1999 21.6655 17.4961 21.7348 16.8172 21.5997C16.1383 21.4647 15.5146 21.1314 15.0251 20.6419C14.5356 20.1524 14.2023 19.5287 14.0673 18.8498C13.9322 18.1709 14.0015 17.4671 14.2664 16.8276C14.5313 16.1881 14.9799 15.6414 15.5555 15.2569C16.1311 14.8723 16.8078 14.667 17.5 14.667H19V5H8V18.167C8 18.8592 7.79473 19.5359 7.41015 20.1115C7.02556 20.6871 6.47894 21.1357 5.83939 21.4006C5.19985 21.6655 4.49612 21.7348 3.81719 21.5997C3.13825 21.4647 2.51461 21.1314 2.02513 20.6419C1.53564 20.1524 1.2023 19.5287 1.06725 18.8498C0.932205 18.1709 1.00152 17.4671 1.26642 16.8276C1.53133 16.1881 1.97993 15.6414 2.55551 15.2569C3.13108 14.8723 3.80777 14.667 4.5 14.667H6V3ZM6 16.667H4.5C4.20333 16.667 3.91332 16.755 3.66665 16.9198C3.41997 17.0846 3.22771 17.3189 3.11418 17.593C3.00065 17.8671 2.97095 18.1687 3.02882 18.4596C3.0867 18.7506 3.22956 19.0179 3.43934 19.2277C3.64912 19.4374 3.91639 19.5803 4.20737 19.6382C4.49834 19.6961 4.79994 19.6664 5.07403 19.5528C5.34812 19.4393 5.58238 19.247 5.74721 19.0004C5.91203 18.7537 6 18.4637 6 18.167V16.667ZM19 16.667H17.5C17.2033 16.667 16.9133 16.755 16.6666 16.9198C16.42 17.0846 16.2277 17.3189 16.1142 17.593C16.0007 17.8671 15.9709 18.1687 16.0288 18.4596C16.0867 18.7506 16.2296 19.0179 16.4393 19.2277C16.6491 19.4374 16.9164 19.5803 17.2074 19.6382C17.4983 19.6961 17.7999 19.6664 18.074 19.5528C18.3481 19.4393 18.5824 19.247 18.7472 19.0004C18.912 18.7537 19 18.4637 19 18.167V16.667Z" fill="white"/>
</svg>
