<svg width="16" height="16" viewBox="0 0 16 16" fill="none" xmlns="http://www.w3.org/2000/svg">
<g clip-path="url(#clip0_1_16)">
<path d="M16 8C15.9998 6.47121 15.5615 4.9745 14.737 3.68706C13.9126 2.39963 12.7365 1.37537 11.3481 0.735559C9.95962 0.095746 8.4169 -0.132832 6.90257 0.076886C5.38823 0.286604 3.9657 0.925835 2.80337 1.9189C1.64104 2.91197 0.787596 4.21729 0.344069 5.68032C-0.099457 7.14336 -0.114491 8.70285 0.300748 10.1742C0.715987 11.6455 1.54411 12.967 2.68708 13.9823C3.83004 14.9976 5.23999 15.6641 6.75 15.903V10.313H4.719V8H6.75V6.237C6.75 4.232 7.944 3.125 9.772 3.125C10.647 3.125 11.562 3.281 11.562 3.281V5.25H10.554C9.56 5.25 9.25 5.867 9.25 6.5V8H11.469L11.114 10.313H9.25V15.903C11.1317 15.6049 12.8454 14.6452 14.0827 13.1965C15.32 11.7478 15.9999 9.90518 16 8Z" fill="white"/>
</g>
<defs>
<clipPath id="clip0_1_16">
<rect width="16" height="16" fill="white"/>
</clipPath>
</defs>
</svg>
