<svg width="23" height="24" viewBox="0 0 23 24" fill="none" xmlns="http://www.w3.org/2000/svg">
<path d="M15.2921 2.793C15.4718 2.98053 15.5727 3.23484 15.5727 3.5C15.5727 3.76516 15.4718 4.01947 15.2921 4.207L7.82383 12L15.2921 19.793C15.3837 19.8852 15.4567 19.9956 15.5069 20.1176C15.5571 20.2396 15.5835 20.3708 15.5847 20.5036C15.5858 20.6364 15.5615 20.7681 15.5133 20.891C15.4651 21.0138 15.394 21.1255 15.304 21.2194C15.214 21.3133 15.107 21.3875 14.9892 21.4378C14.8715 21.4881 14.7453 21.5134 14.618 21.5123C14.4908 21.5111 14.365 21.4835 14.2481 21.4311C14.1312 21.3787 14.0254 21.3025 13.937 21.207L5.11366 12L13.937 2.793C14.1168 2.60553 14.3605 2.50021 14.6146 2.50021C14.8687 2.50021 15.1124 2.60553 15.2921 2.793Z" fill="white"/>
</svg>
