<svg width="16" height="16" viewBox="0 0 16 16" fill="none" xmlns="http://www.w3.org/2000/svg">
<g clip-path="url(#clip0_1_37)">
<path d="M8 1.44C10.136 1.44 10.389 1.449 11.233 1.487C12.013 1.523 12.436 1.653 12.718 1.763C13.066 1.891 13.381 2.095 13.639 2.361C13.905 2.619 14.109 2.934 14.238 3.282C14.348 3.564 14.478 3.988 14.513 4.767C14.552 5.611 14.56 5.864 14.56 8C14.56 10.136 14.552 10.389 14.513 11.232C14.478 12.012 14.347 12.436 14.238 12.718C14.1047 13.0628 13.9007 13.3759 13.6393 13.6373C13.3779 13.8987 13.0648 14.1027 12.72 14.236C12.438 14.346 12.014 14.476 11.234 14.511C10.391 14.55 10.137 14.558 8.001 14.558C5.865 14.558 5.611 14.55 4.769 14.511C3.989 14.476 3.565 14.346 3.283 14.236C2.93503 14.1078 2.62029 13.9031 2.362 13.637C2.09603 13.379 1.89134 13.0646 1.763 12.717C1.653 12.435 1.523 12.011 1.488 11.231C1.45 10.387 1.441 10.135 1.441 7.999C1.441 5.863 1.45 5.609 1.488 4.766C1.524 3.986 1.654 3.563 1.763 3.281C1.892 2.933 2.096 2.618 2.362 2.36C2.62028 2.09438 2.93459 1.88974 3.282 1.761C3.565 1.651 3.989 1.521 4.769 1.486C5.612 1.448 5.865 1.439 8.001 1.439L8 1.441V1.44ZM8.001 -0.0019989C5.829 -0.0019989 5.556 0.0080011 4.703 0.0460011C3.849 0.0860011 3.268 0.222001 2.76 0.419001C2.22625 0.620137 1.74272 0.935102 1.343 1.342C0.936 1.742 0.621 2.225 0.42 2.759C0.222 3.267 0.087 3.849 0.048 4.701C0.01 5.552 0 5.826 0 8C0 10.172 0.01 10.445 0.048 11.298C0.088 12.151 0.222 12.731 0.42 13.239C0.62 13.773 0.936 14.256 1.343 14.656C1.743 15.063 2.226 15.378 2.76 15.579C3.268 15.777 3.85 15.912 4.702 15.951C5.554 15.99 5.828 15.999 8.001 15.999C10.173 15.999 10.446 15.989 11.299 15.951C12.152 15.911 12.732 15.777 13.239 15.579C13.7706 15.3737 14.2534 15.0594 14.6564 14.6564C15.0594 14.2534 15.3737 13.7706 15.579 13.239C15.778 12.731 15.913 12.149 15.952 11.297C15.991 10.446 16 10.172 16 7.999C16 5.826 15.99 5.554 15.952 4.701C15.912 3.848 15.778 3.268 15.58 2.761C15.3791 2.22684 15.0641 1.74293 14.657 1.343C14.2573 0.936102 13.7737 0.621137 13.24 0.420001C12.732 0.223001 12.15 0.0870011 11.298 0.0490011C10.447 0.0080011 10.173 -0.000998901 8 -0.000998901L8.001 -0.0019989Z" fill="black"/>
<path d="M8 3.892C6.91049 3.892 5.8656 4.3248 5.0952 5.0952C4.3248 5.8656 3.892 6.91049 3.892 8C3.892 9.08951 4.3248 10.1344 5.0952 10.9048C5.8656 11.6752 6.91049 12.108 8 12.108C9.08951 12.108 10.1344 11.6752 10.9048 10.9048C11.6752 10.1344 12.108 9.08951 12.108 8C12.108 6.91049 11.6752 5.8656 10.9048 5.0952C10.1344 4.3248 9.08951 3.892 8 3.892ZM8 10.667C7.64535 10.6739 7.2929 10.6099 6.96325 10.479C6.6336 10.348 6.33337 10.1526 6.08014 9.90423C5.8269 9.65585 5.62574 9.35947 5.48841 9.03242C5.35108 8.70536 5.28035 8.35421 5.28035 7.9995C5.28035 7.64478 5.35108 7.29363 5.48841 6.96658C5.62574 6.63953 5.8269 6.34314 6.08014 6.09476C6.33337 5.84638 6.6336 5.65099 6.96325 5.52002C7.2929 5.38905 7.64535 5.32513 8 5.332C8.69852 5.34552 9.36387 5.63251 9.85308 6.13129C10.3423 6.63007 10.6163 7.30084 10.6163 7.9995C10.6163 8.69815 10.3423 9.36893 9.85308 9.86771C9.36387 10.3665 8.69852 10.6535 8 10.667ZM12.27 4.689C12.5246 4.689 12.7688 4.58785 12.9488 4.40782C13.1289 4.22778 13.23 3.98361 13.23 3.729C13.23 3.47439 13.1289 3.23021 12.9488 3.05017C12.7688 2.87014 12.5246 2.769 12.27 2.769C12.0154 2.769 11.7712 2.87014 11.5912 3.05017C11.4111 3.23021 11.31 3.47439 11.31 3.729C11.31 3.98361 11.4111 4.22778 11.5912 4.40782C11.7712 4.58785 12.0154 4.689 12.27 4.689Z" fill="white"/>
</g>
<defs>
<clipPath id="clip0_1_37">
<rect width="16" height="16" fill="white"/>
</clipPath>
</defs>
</svg>
