<svg width="23" height="24" viewBox="0 0 23 24" fill="none" xmlns="http://www.w3.org/2000/svg">
<path d="M13.8958 2.134C14.0415 2.04623 14.2068 2.00003 14.375 2.00003C14.5432 2.00003 14.7085 2.04623 14.8542 2.134L20.6042 5.598C20.7499 5.68577 20.8708 5.812 20.9549 5.96401C21.039 6.11603 21.0833 6.28847 21.0833 6.464V21C21.0833 21.2652 20.9824 21.5196 20.8026 21.7071C20.6229 21.8946 20.3792 22 20.125 22H14.375C14.1208 22 13.8771 21.8946 13.6974 21.7071C13.5176 21.5196 13.4167 21.2652 13.4167 21V3C13.4167 2.82447 13.461 2.65203 13.5451 2.50001C13.6292 2.348 13.7502 2.22177 13.8958 2.134ZM15.3333 4.732V20H19.1667V7.041L15.3333 4.732ZM2.87501 22C2.62084 22 2.37708 21.8946 2.19736 21.7071C2.01764 21.5196 1.91667 21.2652 1.91667 21V3C1.91667 2.73478 2.01764 2.48043 2.19736 2.29289C2.37708 2.10536 2.62084 2 2.87501 2C3.12917 2 3.37293 2.10536 3.55265 2.29289C3.73237 2.48043 3.83334 2.73478 3.83334 3V21C3.83334 21.2652 3.73237 21.5196 3.55265 21.7071C3.37293 21.8946 3.12917 22 2.87501 22ZM8.625 22C8.37084 22 8.12708 21.8946 7.94736 21.7071C7.76764 21.5196 7.66667 21.2652 7.66667 21V3C7.66667 2.73478 7.76764 2.48043 7.94736 2.29289C8.12708 2.10536 8.37084 2 8.625 2C8.87917 2 9.12293 2.10536 9.30265 2.29289C9.48237 2.48043 9.58334 2.73478 9.58334 3V21C9.58334 21.2652 9.48237 21.5196 9.30265 21.7071C9.12293 21.8946 8.87917 22 8.625 22Z" fill="white"/>
</svg>
