<svg width="11" height="12" viewBox="0 0 11 12" fill="none" xmlns="http://www.w3.org/2000/svg">
<g clip-path="url(#clip0_1_22)">
<path d="M10.8102 3.165C10.6914 2.52045 10.3954 1.93071 9.96156 1.47434C9.52774 1.01797 8.97675 0.716641 8.38199 0.610496C7.93513 0.532788 7.47785 0.568851 7.04588 0.71587C6.61391 0.862888 6.21895 1.11688 5.89187 1.458C5.7854 1.56601 5.64539 1.62606 5.49999 1.62606C5.3546 1.62606 5.21459 1.56601 5.10812 1.458C4.56506 0.884977 3.84047 0.562302 3.08496 0.557042C2.32945 0.551782 1.60114 0.864342 1.05142 1.42975C0.501703 1.99516 0.172862 2.76993 0.133254 3.59301C0.0936451 4.41608 0.346316 5.22415 0.838744 5.84925L4.90599 11.1367C4.97879 11.2312 5.06965 11.3072 5.1722 11.3593C5.27475 11.4114 5.38652 11.4384 5.49965 11.4384C5.61278 11.4384 5.72455 11.4114 5.8271 11.3593C5.92965 11.3072 6.02051 11.2312 6.09331 11.1367L10.1606 5.84925C10.4482 5.48505 10.6561 5.05428 10.7687 4.58951C10.8812 4.12474 10.8954 3.63814 10.8102 3.1665V3.165Z" fill="white"/>
</g>
<defs>
<clipPath id="clip0_1_22">
<rect width="11" height="12" fill="white"/>
</clipPath>
</defs>
</svg>
