<svg width="16" height="16" viewBox="0 0 16 16" fill="none" xmlns="http://www.w3.org/2000/svg">
<path d="M3 1.713C2.99986 1.59006 3.03211 1.46925 3.09349 1.36272C3.15487 1.2562 3.24322 1.16772 3.34966 1.10619C3.4561 1.04466 3.57686 1.01225 3.6998 1.01221C3.82275 1.01218 3.94353 1.04453 4.05 1.106L14.94 7.394C15.0463 7.45546 15.1346 7.54382 15.1959 7.65019C15.2573 7.75655 15.2896 7.8772 15.2896 8C15.2896 8.1228 15.2573 8.24344 15.1959 8.34981C15.1346 8.45618 15.0463 8.54453 14.94 8.606L4.05 14.894C3.9436 14.9554 3.82291 14.9878 3.70005 14.9878C3.5772 14.9878 3.4565 14.9555 3.35009 14.8941C3.24369 14.8326 3.15532 14.7443 3.09386 14.6379C3.03241 14.5315 3.00004 14.4109 3 14.288V1.713Z" fill="white"/>
</svg>
