<svg width="23" height="24" viewBox="0 0 23 24" fill="none" xmlns="http://www.w3.org/2000/svg">
<path d="M10.0941 1.279C5.12995 1.279 1.07907 5.419 1.07907 10.558C1.07907 15.697 5.12899 19.837 10.0941 19.837C12.235 19.837 14.2054 19.067 15.755 17.779L19.9266 22.132C20.015 22.2275 20.1208 22.3037 20.2377 22.3561C20.3546 22.4085 20.4804 22.4361 20.6076 22.4373C20.7348 22.4384 20.861 22.4131 20.9788 22.3628C21.0966 22.3125 21.2036 22.2383 21.2936 22.1444C21.3836 22.0505 21.4547 21.9389 21.5029 21.816C21.5511 21.6931 21.5753 21.5614 21.5742 21.4286C21.5731 21.2958 21.5467 21.1646 21.4965 21.0426C21.4462 20.9206 21.3732 20.8102 21.2817 20.718L17.1187 16.374C18.4076 14.7343 19.1111 12.6787 19.1092 10.558C19.1092 5.418 15.0592 1.278 10.0941 1.278V1.279ZM2.99574 10.558C2.99574 6.552 6.16015 3.278 10.0941 3.278C14.0281 3.278 17.1925 6.552 17.1925 10.558C17.1925 14.564 14.0281 17.837 10.0941 17.837C6.16015 17.837 2.99574 14.564 2.99574 10.557V10.558Z" fill="white"/>
</svg>
