<svg width="1114" height="340" viewBox="0 0 1114 340" fill="none" xmlns="http://www.w3.org/2000/svg">
<path d="M7.8589 171C7.8589 263 82.5185 339 172.896 339C263.273 339 337.933 263 337.933 171C337.933 79 263.273 4 172.896 4C82.5185 4 7.8589 79 7.8589 171ZM233.802 249C195.49 225 146.372 219 89.3951 232C75.642 234 73.6772 214 85.4656 212C148.337 197 201.384 204 244.608 231C255.414 238 244.608 255 233.802 249ZM250.503 204C206.296 176 138.513 168 86.448 184C69.7478 189 63.8536 163 79.5714 159C139.496 141 213.173 150 264.256 182C278.009 191 264.256 213 250.503 204ZM78.5891 133C61.8889 139 51.0829 110 69.7478 103C127.707 85 225.944 88 286.85 125C303.55 134 287.832 162 270.15 152C217.102 120 128.69 117 78.5891 133ZM450.905 224C434.205 224 418.487 218 404.734 204C403.751 204 403.751 205 403.751 205L388.034 224C387.051 225 387.051 226 388.034 227C405.716 243 427.328 251 450.905 251C484.305 251 504.935 232 504.935 204C504.935 180 490.199 167 455.817 158C427.328 151 422.416 146 422.416 136C422.416 126 432.24 120 445.011 120C457.781 120 469.57 125 483.323 135C483.323 135 484.305 136 485.287 136C486.27 136 486.27 135 486.27 135L500.023 115C501.005 114 501.005 114 500.023 113C484.305 100 465.64 93 445.011 93C414.557 93 392.945 112 392.945 139C392.945 168 412.593 177 444.028 185C471.534 191 475.464 197 475.464 207C475.464 218 465.64 224 450.905 224ZM544.229 147V134C544.229 133 543.247 132 542.265 132H516.723C515.741 132 514.758 133 514.758 134V281C514.758 282 515.741 283 516.723 283H542.265C543.247 283 544.229 282 544.229 281V235C554.053 246 564.859 251 579.594 251C606.118 251 632.642 230 632.642 190C632.642 150 606.118 130 579.594 130C564.859 130 554.053 135 544.229 147ZM573.7 225C556.018 225 543.247 210 543.247 190C543.247 170 556.018 156 573.7 156C591.383 156 603.171 170 603.171 190C603.171 210 591.383 225 573.7 225ZM640.501 191C640.501 225 667.025 251 701.407 251C735.79 251 762.314 224 762.314 190C762.314 156 736.772 130 702.39 130C668.007 130 640.501 157 640.501 191ZM669.972 190C669.972 170 682.743 156 701.407 156C720.072 156 733.825 171 733.825 191C733.825 211 721.055 225 702.39 225C683.725 225 669.972 210 669.972 190ZM807.503 132V103C807.503 102 807.503 101 806.52 101H780.979C779.996 101 779.014 102 779.014 103V132H766.243C765.261 132 764.279 133 764.279 134V156C764.279 157 765.261 158 766.243 158H779.014V216C779.014 239 789.82 251 812.415 251C821.256 251 830.097 249 836.974 245C837.956 245 837.956 244 837.956 243V222C837.956 221 837.956 220 836.974 220H835.009C830.097 223 824.203 224 819.291 224C811.432 224 807.503 220 807.503 212V158H836.974C837.956 158 838.938 157 838.938 156V134C838.938 133 837.956 132 836.974 132H807.503ZM934.228 129C934.228 118 938.157 114 946.998 114C951.91 114 956.822 114 961.734 116H962.716C962.716 116 963.698 115 963.698 114V93C963.698 92 963.698 91 962.716 91C957.804 89 950.928 88 941.104 88C917.527 88 905.739 102 905.739 127V132H892.968C891.986 132 891.004 133 891.004 134V156C891.004 157 891.986 158 892.968 158H905.739V247C905.739 248 906.721 249 907.704 249H933.245C934.228 249 934.228 248 934.228 247V158H958.787L995.134 247C991.205 256 987.275 258 981.381 258C976.469 258 971.557 257 966.646 254H965.663L964.681 255L955.84 274C955.84 275 955.84 277 956.822 277C965.663 282 973.522 284 983.346 284C1002.01 284 1012.82 275 1021.66 251L1065.86 135V133C1065.86 132 1064.88 132 1063.9 132H1037.38C1036.39 132 1036.39 133 1036.39 134L1008.89 212L979.416 134C979.416 133 978.434 132 977.451 132H934.228V129ZM852.691 132C851.709 132 850.727 133 850.727 134V247C850.727 248 851.709 249 852.691 249H878.233C879.215 249 879.215 248 879.215 247V134C879.215 133 879.215 132 878.233 132H852.691ZM846.797 99C846.797 109 855.638 118 865.462 118C875.286 118 883.145 109 883.145 99C883.145 89 875.286 81 865.462 81C855.638 81 846.797 89 846.797 99ZM1087.48 168C1097.3 168 1106.14 160 1106.14 150C1106.14 140 1097.3 132 1087.48 132C1077.65 132 1069.79 140 1069.79 150C1069.79 160 1077.65 168 1087.48 168ZM1087.48 134C1096.32 134 1104.18 141 1104.18 150C1104.18 159 1096.32 166 1087.48 166C1078.63 166 1071.76 159 1071.76 150C1071.76 141 1078.63 134 1087.48 134ZM1091.41 152C1094.35 151 1096.32 149 1096.32 146C1096.32 142 1092.39 140 1088.46 140H1080.6V159H1084.53V153H1088.46L1092.39 159H1097.3L1091.41 152ZM1088.46 143C1090.42 143 1092.39 144 1092.39 146C1092.39 148 1090.42 149 1088.46 149H1084.53V143H1088.46Z" fill="white"/>
</svg>
