<svg width="15" height="16" viewBox="0 0 15 16" fill="none" xmlns="http://www.w3.org/2000/svg">
<path d="M12.6938 3.889C13.2926 3.51399 13.7384 2.91368 13.9434 2.206C13.3857 2.56281 12.7736 2.81259 12.135 2.944C11.8725 2.64271 11.5547 2.40238 11.2013 2.238C10.8416 2.06858 10.4525 1.98202 10.0594 1.984C9.68532 1.97789 9.31406 2.05362 8.96852 2.20653C8.62297 2.35943 8.31047 2.58625 8.05031 2.873C7.78108 3.15164 7.56822 3.48617 7.42488 3.85595C7.28154 4.22572 7.21075 4.62291 7.21688 5.023C7.21688 5.235 7.24219 5.465 7.29187 5.714C6.15305 5.65689 5.03908 5.33903 4.02563 4.782C3.02446 4.23694 2.14218 3.47301 1.43625 2.54C1.18179 3.00158 1.04808 3.52753 1.04906 4.063C1.04906 4.582 1.16156 5.063 1.3875 5.508C1.6125 5.953 1.92187 6.313 2.31375 6.588C1.86207 6.58044 1.41943 6.45183 1.02656 6.214V6.254C1.02656 6.979 1.24219 7.619 1.67344 8.174C2.08458 8.71678 2.66177 9.0878 3.30375 9.222C2.88724 9.3477 2.44882 9.36689 2.02406 9.278C2.19738 9.87878 2.54665 10.4045 3.02062 10.778C3.49765 11.1659 4.08015 11.3776 4.68 11.381C3.67762 12.2362 2.42917 12.6962 1.14562 12.683C0.917812 12.683 0.691875 12.667 0.46875 12.635C1.76493 13.5362 3.28095 14.0109 4.82812 14C5.67656 14 6.48094 13.88 7.23938 13.639C7.99875 13.399 8.67 13.069 9.25219 12.651C9.83253 12.2356 10.3625 11.7452 10.83 11.191C11.2987 10.635 11.6841 10.036 11.9869 9.393C12.2861 8.75984 12.5182 8.09305 12.6788 7.405C12.8659 6.61159 12.9436 5.79332 12.9094 4.976C13.4635 4.54815 13.9421 4.01898 14.3231 3.413C13.7981 3.662 13.2544 3.82 12.6938 3.889Z" fill="white"/>
</svg>
