<svg width="15" height="16" viewBox="0 0 15 16" fill="none" xmlns="http://www.w3.org/2000/svg">
<g clip-path="url(#clip0_1_54)">
<path d="M9.13219 0.85C9.23915 0.915867 9.32795 1.01062 9.38967 1.12473C9.45138 1.23883 9.48384 1.36827 9.48376 1.5V14.5C9.48384 14.6317 9.4514 14.7611 9.38972 14.8752C9.32804 14.9893 9.23929 15.084 9.13239 15.1499C9.02549 15.2158 8.90421 15.2505 8.78074 15.2505C8.65728 15.2505 8.53599 15.2158 8.42907 15.15L1.93688 11.15C1.15519 10.6666 0.585023 9.87232 0.351308 8.9413C0.117593 8.01028 0.239387 7.01841 0.690006 6.183C0.98892 5.63004 1.41893 5.17067 1.93688 4.851L8.42907 0.851C8.53596 0.785174 8.65721 0.750519 8.78063 0.750519C8.90406 0.750519 9.02531 0.785174 9.13219 0.851V0.85ZM2.64094 6.15C2.33716 6.33806 2.08502 6.60793 1.90975 6.9326C1.73447 7.25727 1.64222 7.62535 1.64222 8C1.64222 8.37465 1.73447 8.74273 1.90975 9.0674C2.08502 9.39207 2.33716 9.66194 2.64094 9.85L8.07844 13.2V2.8L2.64094 6.15ZM10.7813 10.44V5.56C11.2 5.79217 11.5509 6.14246 11.7958 6.57271C12.0407 7.00295 12.1702 7.49665 12.1702 8C12.1702 8.50335 12.0407 8.99705 11.7958 9.42729C11.5509 9.85754 11.2 10.2078 10.7813 10.44Z" fill="white"/>
<path d="M10.7812 13.614C11.978 13.3292 13.048 12.6179 13.8149 11.5973C14.5817 10.5768 14.9996 9.30792 14.9996 8C14.9996 6.69209 14.5817 5.42323 13.8149 4.40266C13.048 3.3821 11.978 2.67078 10.7812 2.386V3.936C11.5957 4.20367 12.3083 4.7427 12.8145 5.47403C13.3206 6.20535 13.5938 7.09046 13.5938 7.9995C13.5938 8.90854 13.3206 9.79365 12.8145 10.525C12.3083 11.2563 11.5957 11.7953 10.7812 12.063V13.613V13.614Z" fill="white"/>
</g>
<defs>
<clipPath id="clip0_1_54">
<rect width="15" height="16" fill="white"/>
</clipPath>
</defs>
</svg>
